<svg id="visual" viewBox="0 0 540 960" xmlns="http://www.w3.org/2000/svg" xmlns:xlink="http://www.w3.org/1999/xlink" version="1.1"><g stroke-width="1" stroke-linejoin="bevel"><path d="M253 496L208 476L234 528.3Z" fill="#246688" stroke="#246688"></path><path d="M253 496L220 436.7L208 476Z" fill="#19435d" stroke="#19435d"></path><path d="M141 489L162 531.3L208 476Z" fill="#1d4e6b" stroke="#1d4e6b"></path><path d="M208 476L162 531.3L234 528.3Z" fill="#15384f" stroke="#15384f"></path><path d="M234 528.3L293 510.3L253 496Z" fill="#00101c" stroke="#00101c"></path><path d="M253 496L290 450.7L220 436.7Z" fill="#00101c" stroke="#00101c"></path><path d="M217 588.7L262 564.7L234 528.3Z" fill="#277297" stroke="#277297"></path><path d="M234 528.3L262 564.7L293 510.3Z" fill="#205a7a" stroke="#205a7a"></path><path d="M328 556.3L305 504L293 510.3Z" fill="#0c2435" stroke="#0c2435"></path><path d="M293 510.3L290 450.7L253 496Z" fill="#297ea6" stroke="#297ea6"></path><path d="M305 504L290 450.7L293 510.3Z" fill="#205a7a" stroke="#205a7a"></path><path d="M159 401.7L141 489L208 476Z" fill="#297ea6" stroke="#297ea6"></path><path d="M162 531.3L217 588.7L234 528.3Z" fill="#246688" stroke="#246688"></path><path d="M108 552.3L155 584.7L162 531.3Z" fill="#112e42" stroke="#112e42"></path><path d="M162 531.3L155 584.7L217 588.7Z" fill="#246688" stroke="#246688"></path><path d="M159 401.7L112 470L141 489Z" fill="#19435d" stroke="#19435d"></path><path d="M141 489L108 552.3L162 531.3Z" fill="#00101c" stroke="#00101c"></path><path d="M155 584.7L213 618L217 588.7Z" fill="#0c2435" stroke="#0c2435"></path><path d="M217 588.7L291 629L262 564.7Z" fill="#297ea6" stroke="#297ea6"></path><path d="M326 586.7L328 556.3L262 564.7Z" fill="#00101c" stroke="#00101c"></path><path d="M262 564.7L328 556.3L293 510.3Z" fill="#277297" stroke="#277297"></path><path d="M305 504L329 440.7L290 450.7Z" fill="#15384f" stroke="#15384f"></path><path d="M233 349.3L159 401.7L220 436.7Z" fill="#205a7a" stroke="#205a7a"></path><path d="M220 436.7L159 401.7L208 476Z" fill="#205a7a" stroke="#205a7a"></path><path d="M355 493L329 440.7L305 504Z" fill="#246688" stroke="#246688"></path><path d="M272 354.3L233 349.3L220 436.7Z" fill="#15384f" stroke="#15384f"></path><path d="M112 470L108 552.3L141 489Z" fill="#112e42" stroke="#112e42"></path><path d="M328 556.3L355 493L305 504Z" fill="#15384f" stroke="#15384f"></path><path d="M291 629L326 586.7L262 564.7Z" fill="#246688" stroke="#246688"></path><path d="M328 556.3L374 550.3L355 493Z" fill="#19435d" stroke="#19435d"></path><path d="M213 618L291 629L217 588.7Z" fill="#081a28" stroke="#081a28"></path><path d="M159 401.7L95 427.7L112 470Z" fill="#246688" stroke="#246688"></path><path d="M112 470L47 538.3L108 552.3Z" fill="#15384f" stroke="#15384f"></path><path d="M272 354.3L220 436.7L290 450.7Z" fill="#1d4e6b" stroke="#1d4e6b"></path><path d="M159 401.7L139 368.3L95 427.7Z" fill="#205a7a" stroke="#205a7a"></path><path d="M332 363.3L272 354.3L290 450.7Z" fill="#297ea6" stroke="#297ea6"></path><path d="M233 349.3L139 368.3L159 401.7Z" fill="#246688" stroke="#246688"></path><path d="M390 585.7L374 550.3L326 586.7Z" fill="#277297" stroke="#277297"></path><path d="M326 586.7L374 550.3L328 556.3Z" fill="#0c2435" stroke="#0c2435"></path><path d="M47 538.3L101 602.7L108 552.3Z" fill="#15384f" stroke="#15384f"></path><path d="M108 552.3L101 602.7L155 584.7Z" fill="#19435d" stroke="#19435d"></path><path d="M155 584.7L147 657L213 618Z" fill="#246688" stroke="#246688"></path><path d="M316 702.3L323 641L291 629Z" fill="#277297" stroke="#277297"></path><path d="M355 493L359 403.7L329 440.7Z" fill="#277297" stroke="#277297"></path><path d="M329 440.7L332 363.3L290 450.7Z" fill="#277297" stroke="#277297"></path><path d="M430 427.7L359 403.7L355 493Z" fill="#00101c" stroke="#00101c"></path><path d="M260 704.3L291 629L213 618Z" fill="#081a28" stroke="#081a28"></path><path d="M291 629L323 641L326 586.7Z" fill="#277297" stroke="#277297"></path><path d="M101 602.7L147 657L155 584.7Z" fill="#112e42" stroke="#112e42"></path><path d="M359 403.7L332 363.3L329 440.7Z" fill="#15384f" stroke="#15384f"></path><path d="M43 487L47 538.3L112 470Z" fill="#0c2435" stroke="#0c2435"></path><path d="M51 440.7L112 470L95 427.7Z" fill="#19435d" stroke="#19435d"></path><path d="M51 440.7L43 487L112 470Z" fill="#205a7a" stroke="#205a7a"></path><path d="M44 353.3L51 440.7L95 427.7Z" fill="#277297" stroke="#277297"></path><path d="M311 332L269 321L272 354.3Z" fill="#0c2435" stroke="#0c2435"></path><path d="M272 354.3L269 321L233 349.3Z" fill="#297ea6" stroke="#297ea6"></path><path d="M98 335L106 354.3L146 297Z" fill="#15384f" stroke="#15384f"></path><path d="M323 641L390 585.7L326 586.7Z" fill="#15384f" stroke="#15384f"></path><path d="M374 550.3L424 539.3L355 493Z" fill="#0c2435" stroke="#0c2435"></path><path d="M146 297L139 368.3L233 349.3Z" fill="#246688" stroke="#246688"></path><path d="M139 368.3L106 354.3L95 427.7Z" fill="#00101c" stroke="#00101c"></path><path d="M332 363.3L311 332L272 354.3Z" fill="#15384f" stroke="#15384f"></path><path d="M359 403.7L363 369.3L332 363.3Z" fill="#0c2435" stroke="#0c2435"></path><path d="M332 363.3L363 369.3L311 332Z" fill="#246688" stroke="#246688"></path><path d="M438 392.3L363 369.3L359 403.7Z" fill="#205a7a" stroke="#205a7a"></path><path d="M267 289.7L240 303L269 321Z" fill="#19435d" stroke="#19435d"></path><path d="M269 321L240 303L233 349.3Z" fill="#297ea6" stroke="#297ea6"></path><path d="M101 602.7L102 660L147 657Z" fill="#081a28" stroke="#081a28"></path><path d="M49 632L102 660L101 602.7Z" fill="#1d4e6b" stroke="#1d4e6b"></path><path d="M390 585.7L424 539.3L374 550.3Z" fill="#205a7a" stroke="#205a7a"></path><path d="M198 717.3L213 618L147 657Z" fill="#081a28" stroke="#081a28"></path><path d="M198 717.3L260 704.3L213 618Z" fill="#112e42" stroke="#112e42"></path><path d="M323 641L371 661L390 585.7Z" fill="#277297" stroke="#277297"></path><path d="M146 297L106 354.3L139 368.3Z" fill="#00101c" stroke="#00101c"></path><path d="M106 354.3L44 353.3L95 427.7Z" fill="#15384f" stroke="#15384f"></path><path d="M308 284.7L267 289.7L269 321Z" fill="#205a7a" stroke="#205a7a"></path><path d="M215 275.7L146 297L233 349.3Z" fill="#15384f" stroke="#15384f"></path><path d="M308 284.7L269 321L311 332Z" fill="#15384f" stroke="#15384f"></path><path d="M363 669.3L371 661L323 641Z" fill="#00101c" stroke="#00101c"></path><path d="M390 585.7L435 582.7L424 539.3Z" fill="#297ea6" stroke="#297ea6"></path><path d="M215 275.7L233 349.3L240 303Z" fill="#112e42" stroke="#112e42"></path><path d="M146 712.3L198 717.3L147 657Z" fill="#00101c" stroke="#00101c"></path><path d="M316 702.3L363 669.3L323 641Z" fill="#15384f" stroke="#15384f"></path><path d="M451 489L430 427.7L355 493Z" fill="#00101c" stroke="#00101c"></path><path d="M29 607.7L101 602.7L47 538.3Z" fill="#00101c" stroke="#00101c"></path><path d="M29 607.7L49 632L101 602.7Z" fill="#112e42" stroke="#112e42"></path><path d="M102 694.3L146 712.3L147 657Z" fill="#15384f" stroke="#15384f"></path><path d="M264 724.7L316 702.3L260 704.3Z" fill="#246688" stroke="#246688"></path><path d="M260 704.3L316 702.3L291 629Z" fill="#112e42" stroke="#112e42"></path><path d="M0 589.7L29 607.7L47 538.3Z" fill="#19435d" stroke="#19435d"></path><path d="M0 425.7L0 500L43 487Z" fill="#15384f" stroke="#15384f"></path><path d="M43 487L0 500L47 538.3Z" fill="#297ea6" stroke="#297ea6"></path><path d="M0 425.7L43 487L51 440.7Z" fill="#277297" stroke="#277297"></path><path d="M267 289.7L215 275.7L240 303Z" fill="#246688" stroke="#246688"></path><path d="M102 694.3L147 657L102 660Z" fill="#19435d" stroke="#19435d"></path><path d="M371 661L415 622L390 585.7Z" fill="#00101c" stroke="#00101c"></path><path d="M435 582.7L415 622L503 632Z" fill="#15384f" stroke="#15384f"></path><path d="M415 622L435 582.7L390 585.7Z" fill="#246688" stroke="#246688"></path><path d="M424 539.3L451 489L355 493Z" fill="#0c2435" stroke="#0c2435"></path><path d="M465 489L451 489L481 517.3Z" fill="#0c2435" stroke="#0c2435"></path><path d="M198 717.3L264 724.7L260 704.3Z" fill="#205a7a" stroke="#205a7a"></path><path d="M240 764.7L264 724.7L198 717.3Z" fill="#15384f" stroke="#15384f"></path><path d="M58 671.3L102 694.3L102 660Z" fill="#081a28" stroke="#081a28"></path><path d="M0 500L0 552.3L47 538.3Z" fill="#15384f" stroke="#15384f"></path><path d="M394 295L308 284.7L311 332Z" fill="#297ea6" stroke="#297ea6"></path><path d="M267 289.7L214 234.3L215 275.7Z" fill="#205a7a" stroke="#205a7a"></path><path d="M394 295L311 332L363 369.3Z" fill="#0c2435" stroke="#0c2435"></path><path d="M51 328L44 353.3L98 335Z" fill="#297ea6" stroke="#297ea6"></path><path d="M98 335L44 353.3L106 354.3Z" fill="#246688" stroke="#246688"></path><path d="M0 384.3L0 425.7L51 440.7Z" fill="#15384f" stroke="#15384f"></path><path d="M0 669.3L58 671.3L49 632Z" fill="#15384f" stroke="#15384f"></path><path d="M49 632L58 671.3L102 660Z" fill="#081a28" stroke="#081a28"></path><path d="M0 633L49 632L29 607.7Z" fill="#081a28" stroke="#081a28"></path><path d="M468 385.3L438 392.3L430 427.7Z" fill="#277297" stroke="#277297"></path><path d="M430 427.7L438 392.3L359 403.7Z" fill="#00101c" stroke="#00101c"></path><path d="M0 552.3L0 589.7L47 538.3Z" fill="#277297" stroke="#277297"></path><path d="M481 517.3L451 489L424 539.3Z" fill="#277297" stroke="#277297"></path><path d="M451 489L490 443.7L430 427.7Z" fill="#277297" stroke="#277297"></path><path d="M95 274.7L51 328L98 335Z" fill="#277297" stroke="#277297"></path><path d="M44 353.3L0 384.3L51 440.7Z" fill="#112e42" stroke="#112e42"></path><path d="M113 758.7L146 712.3L102 694.3Z" fill="#19435d" stroke="#19435d"></path><path d="M113 758.7L177 745.7L146 712.3Z" fill="#19435d" stroke="#19435d"></path><path d="M146 712.3L177 745.7L198 717.3Z" fill="#19435d" stroke="#19435d"></path><path d="M0 337L0 384.3L44 353.3Z" fill="#112e42" stroke="#112e42"></path><path d="M435 582.7L481 517.3L424 539.3Z" fill="#205a7a" stroke="#205a7a"></path><path d="M490 443.7L468 385.3L430 427.7Z" fill="#0c2435" stroke="#0c2435"></path><path d="M489 585.7L481 517.3L435 582.7Z" fill="#15384f" stroke="#15384f"></path><path d="M215 275.7L148 253.7L146 297Z" fill="#081a28" stroke="#081a28"></path><path d="M146 297L95 274.7L98 335Z" fill="#112e42" stroke="#112e42"></path><path d="M214 234.3L148 253.7L215 275.7Z" fill="#19435d" stroke="#19435d"></path><path d="M0 589.7L0 633L29 607.7Z" fill="#277297" stroke="#277297"></path><path d="M148 253.7L95 274.7L146 297Z" fill="#297ea6" stroke="#297ea6"></path><path d="M51 328L0 337L44 353.3Z" fill="#246688" stroke="#246688"></path><path d="M177 745.7L240 764.7L198 717.3Z" fill="#205a7a" stroke="#205a7a"></path><path d="M264 724.7L309 768.7L316 702.3Z" fill="#081a28" stroke="#081a28"></path><path d="M316 702.3L372 747.7L363 669.3Z" fill="#205a7a" stroke="#205a7a"></path><path d="M256 205.3L214 234.3L267 289.7Z" fill="#246688" stroke="#246688"></path><path d="M456 331L394 295L363 369.3Z" fill="#00101c" stroke="#00101c"></path><path d="M308 284.7L328 232.3L267 289.7Z" fill="#246688" stroke="#246688"></path><path d="M490 443.7L451 489L465 489Z" fill="#0c2435" stroke="#0c2435"></path><path d="M438 392.3L456 331L363 369.3Z" fill="#112e42" stroke="#112e42"></path><path d="M540 498L490 443.7L465 489Z" fill="#205a7a" stroke="#205a7a"></path><path d="M33 287.7L0 337L51 328Z" fill="#15384f" stroke="#15384f"></path><path d="M444 678.3L415 622L371 661Z" fill="#081a28" stroke="#081a28"></path><path d="M503 632L489 585.7L435 582.7Z" fill="#297ea6" stroke="#297ea6"></path><path d="M481 517.3L540 498L465 489Z" fill="#246688" stroke="#246688"></path><path d="M444 678.3L371 661L363 669.3Z" fill="#112e42" stroke="#112e42"></path><path d="M0 633L0 669.3L49 632Z" fill="#297ea6" stroke="#297ea6"></path><path d="M97 775L113 758.7L53 761.7Z" fill="#112e42" stroke="#112e42"></path><path d="M113 758.7L102 694.3L53 761.7Z" fill="#081a28" stroke="#081a28"></path><path d="M177 745.7L240 809L240 764.7Z" fill="#1d4e6b" stroke="#1d4e6b"></path><path d="M274 810L309 768.7L240 764.7Z" fill="#081a28" stroke="#081a28"></path><path d="M240 764.7L309 768.7L264 724.7Z" fill="#112e42" stroke="#112e42"></path><path d="M372 747.7L444 678.3L363 669.3Z" fill="#205a7a" stroke="#205a7a"></path><path d="M148 253.7L146 228.3L95 274.7Z" fill="#112e42" stroke="#112e42"></path><path d="M95 274.7L33 287.7L51 328Z" fill="#0c2435" stroke="#0c2435"></path><path d="M214 234.3L146 228.3L148 253.7Z" fill="#277297" stroke="#277297"></path><path d="M83 221.3L33 287.7L95 274.7Z" fill="#246688" stroke="#246688"></path><path d="M468 385.3L456 331L438 392.3Z" fill="#277297" stroke="#277297"></path><path d="M474 313L456 331L468 385.3Z" fill="#1d4e6b" stroke="#1d4e6b"></path><path d="M358 231.3L308 284.7L394 295Z" fill="#15384f" stroke="#15384f"></path><path d="M358 231.3L328 232.3L308 284.7Z" fill="#205a7a" stroke="#205a7a"></path><path d="M214 234.3L155 163L146 228.3Z" fill="#15384f" stroke="#15384f"></path><path d="M309 768.7L372 747.7L316 702.3Z" fill="#15384f" stroke="#15384f"></path><path d="M328 232.3L256 205.3L267 289.7Z" fill="#112e42" stroke="#112e42"></path><path d="M397 251.7L358 231.3L394 295Z" fill="#277297" stroke="#277297"></path><path d="M328 232.3L316 180L256 205.3Z" fill="#15384f" stroke="#15384f"></path><path d="M97 775L138 790L113 758.7Z" fill="#246688" stroke="#246688"></path><path d="M113 758.7L138 790L177 745.7Z" fill="#19435d" stroke="#19435d"></path><path d="M53 761.7L102 694.3L58 671.3Z" fill="#081a28" stroke="#081a28"></path><path d="M462 287.7L397 251.7L394 295Z" fill="#19435d" stroke="#19435d"></path><path d="M444 678.3L503 632L415 622Z" fill="#297ea6" stroke="#297ea6"></path><path d="M540 547.3L540 498L481 517.3Z" fill="#00101c" stroke="#00101c"></path><path d="M496 668.3L503 632L444 678.3Z" fill="#205a7a" stroke="#205a7a"></path><path d="M195 841.3L240 809L177 745.7Z" fill="#0c2435" stroke="#0c2435"></path><path d="M309 768.7L365 789L372 747.7Z" fill="#00101c" stroke="#00101c"></path><path d="M162 871.3L195 841.3L138 790Z" fill="#00101c" stroke="#00101c"></path><path d="M0 669.3L53 761.7L58 671.3Z" fill="#1d4e6b" stroke="#1d4e6b"></path><path d="M540 336L474 313L468 385.3Z" fill="#081a28" stroke="#081a28"></path><path d="M456 331L462 287.7L394 295Z" fill="#19435d" stroke="#19435d"></path><path d="M73 193.3L83 221.3L146 228.3Z" fill="#0c2435" stroke="#0c2435"></path><path d="M146 228.3L83 221.3L95 274.7Z" fill="#205a7a" stroke="#205a7a"></path><path d="M240 809L274 810L240 764.7Z" fill="#277297" stroke="#277297"></path><path d="M274 810L308 803L309 768.7Z" fill="#246688" stroke="#246688"></path><path d="M540 547.3L481 517.3L489 585.7Z" fill="#081a28" stroke="#081a28"></path><path d="M490 443.7L540 429.7L468 385.3Z" fill="#15384f" stroke="#15384f"></path><path d="M474 313L462 287.7L456 331Z" fill="#19435d" stroke="#19435d"></path><path d="M540 601.7L540 547.3L489 585.7Z" fill="#081a28" stroke="#081a28"></path><path d="M449 739.7L496 668.3L444 678.3Z" fill="#277297" stroke="#277297"></path><path d="M503 632L540 601.7L489 585.7Z" fill="#205a7a" stroke="#205a7a"></path><path d="M449 739.7L444 678.3L372 747.7Z" fill="#00101c" stroke="#00101c"></path><path d="M308 803L365 789L309 768.7Z" fill="#081a28" stroke="#081a28"></path><path d="M540 498L540 429.7L490 443.7Z" fill="#112e42" stroke="#112e42"></path><path d="M507 230.3L452 246.7L462 287.7Z" fill="#205a7a" stroke="#205a7a"></path><path d="M365 789L449 739.7L372 747.7Z" fill="#0c2435" stroke="#0c2435"></path><path d="M540 630L503 632L540 676.3Z" fill="#15384f" stroke="#15384f"></path><path d="M540 630L540 601.7L503 632Z" fill="#15384f" stroke="#15384f"></path><path d="M358 231.3L316 180L328 232.3Z" fill="#277297" stroke="#277297"></path><path d="M213 137L155 163L214 234.3Z" fill="#0c2435" stroke="#0c2435"></path><path d="M380 157L316 180L358 231.3Z" fill="#081a28" stroke="#081a28"></path><path d="M426 193.3L358 231.3L397 251.7Z" fill="#277297" stroke="#277297"></path><path d="M83 221.3L0 249.7L33 287.7Z" fill="#1d4e6b" stroke="#1d4e6b"></path><path d="M33 287.7L0 249.7L0 337Z" fill="#081a28" stroke="#081a28"></path><path d="M540 429.7L540 378.3L468 385.3Z" fill="#112e42" stroke="#112e42"></path><path d="M316 180L279 164L256 205.3Z" fill="#15384f" stroke="#15384f"></path><path d="M540 289.7L462 287.7L474 313Z" fill="#112e42" stroke="#112e42"></path><path d="M462 287.7L452 246.7L397 251.7Z" fill="#00101c" stroke="#00101c"></path><path d="M540 676.3L503 632L496 668.3Z" fill="#297ea6" stroke="#297ea6"></path><path d="M138 790L195 841.3L177 745.7Z" fill="#15384f" stroke="#15384f"></path><path d="M240 809L283 873.3L274 810Z" fill="#277297" stroke="#277297"></path><path d="M283 873.3L341 836.3L308 803Z" fill="#081a28" stroke="#081a28"></path><path d="M308 803L341 836.3L365 789Z" fill="#246688" stroke="#246688"></path><path d="M65 810L138 790L97 775Z" fill="#19435d" stroke="#19435d"></path><path d="M155 163L73 193.3L146 228.3Z" fill="#246688" stroke="#246688"></path><path d="M83 221.3L0 223.3L0 249.7Z" fill="#1d4e6b" stroke="#1d4e6b"></path><path d="M213 137L214 234.3L256 205.3Z" fill="#112e42" stroke="#112e42"></path><path d="M0 669.3L0 762.7L53 761.7Z" fill="#112e42" stroke="#112e42"></path><path d="M53 761.7L65 810L97 775Z" fill="#00101c" stroke="#00101c"></path><path d="M0 776L65 810L53 761.7Z" fill="#246688" stroke="#246688"></path><path d="M0 762.7L0 776L53 761.7Z" fill="#205a7a" stroke="#205a7a"></path><path d="M283 873.3L308 803L274 810Z" fill="#1d4e6b" stroke="#1d4e6b"></path><path d="M435 824L481 760.7L449 739.7Z" fill="#1d4e6b" stroke="#1d4e6b"></path><path d="M540 378.3L540 336L468 385.3Z" fill="#1d4e6b" stroke="#1d4e6b"></path><path d="M73 193.3L0 223.3L83 221.3Z" fill="#112e42" stroke="#112e42"></path><path d="M540 740.7L540 676.3L496 668.3Z" fill="#297ea6" stroke="#297ea6"></path><path d="M481 760.7L496 668.3L449 739.7Z" fill="#246688" stroke="#246688"></path><path d="M279 164L213 137L256 205.3Z" fill="#1d4e6b" stroke="#1d4e6b"></path><path d="M155 163L116 139L73 193.3Z" fill="#15384f" stroke="#15384f"></path><path d="M435 824L449 739.7L365 789Z" fill="#1d4e6b" stroke="#1d4e6b"></path><path d="M489 165L426 193.3L452 246.7Z" fill="#1d4e6b" stroke="#1d4e6b"></path><path d="M452 246.7L426 193.3L397 251.7Z" fill="#00101c" stroke="#00101c"></path><path d="M316 180L348 107.7L279 164Z" fill="#205a7a" stroke="#205a7a"></path><path d="M271 81.7L206 107.7L213 137Z" fill="#112e42" stroke="#112e42"></path><path d="M31 867.3L116 859.3L65 810Z" fill="#297ea6" stroke="#297ea6"></path><path d="M65 810L116 859.3L138 790Z" fill="#0c2435" stroke="#0c2435"></path><path d="M195 841.3L283 873.3L240 809Z" fill="#081a28" stroke="#081a28"></path><path d="M116 859.3L162 871.3L138 790Z" fill="#277297" stroke="#277297"></path><path d="M221 915.7L283 873.3L195 841.3Z" fill="#1d4e6b" stroke="#1d4e6b"></path><path d="M375 859.3L420 829.3L365 789Z" fill="#297ea6" stroke="#297ea6"></path><path d="M426 193.3L380 157L358 231.3Z" fill="#1d4e6b" stroke="#1d4e6b"></path><path d="M117 106.7L116 139L144 85.7Z" fill="#15384f" stroke="#15384f"></path><path d="M73 193.3L0 180L0 223.3Z" fill="#205a7a" stroke="#205a7a"></path><path d="M540 336L540 289.7L474 313Z" fill="#112e42" stroke="#112e42"></path><path d="M375 859.3L365 789L341 836.3Z" fill="#112e42" stroke="#112e42"></path><path d="M420 829.3L435 824L365 789Z" fill="#246688" stroke="#246688"></path><path d="M348 897.7L375 859.3L341 836.3Z" fill="#15384f" stroke="#15384f"></path><path d="M496 885.7L508 834.3L435 824Z" fill="#277297" stroke="#277297"></path><path d="M116 139L45 153L73 193.3Z" fill="#112e42" stroke="#112e42"></path><path d="M45 153L0 180L73 193.3Z" fill="#297ea6" stroke="#297ea6"></path><path d="M540 289.7L507 230.3L462 287.7Z" fill="#081a28" stroke="#081a28"></path><path d="M426 193.3L408 153L380 157Z" fill="#15384f" stroke="#15384f"></path><path d="M489 165L408 153L426 193.3Z" fill="#0c2435" stroke="#0c2435"></path><path d="M271 81.7L213 137L279 164Z" fill="#246688" stroke="#246688"></path><path d="M348 107.7L316 180L380 157Z" fill="#246688" stroke="#246688"></path><path d="M213 137L206 107.7L155 163Z" fill="#1d4e6b" stroke="#1d4e6b"></path><path d="M116 139L73 90.7L45 153Z" fill="#205a7a" stroke="#205a7a"></path><path d="M540 793L540 740.7L481 760.7Z" fill="#205a7a" stroke="#205a7a"></path><path d="M481 760.7L540 740.7L496 668.3Z" fill="#297ea6" stroke="#297ea6"></path><path d="M0 776L0 828.3L65 810Z" fill="#0c2435" stroke="#0c2435"></path><path d="M144 85.7L116 139L155 163Z" fill="#19435d" stroke="#19435d"></path><path d="M45 153L0 89.7L0 180Z" fill="#00101c" stroke="#00101c"></path><path d="M410 102.7L348 107.7L380 157Z" fill="#277297" stroke="#277297"></path><path d="M206 107.7L144 85.7L155 163Z" fill="#15384f" stroke="#15384f"></path><path d="M0 828.3L31 867.3L65 810Z" fill="#246688" stroke="#246688"></path><path d="M174 915.7L221 915.7L162 871.3Z" fill="#1d4e6b" stroke="#1d4e6b"></path><path d="M174 915.7L162 871.3L112 911.7Z" fill="#246688" stroke="#246688"></path><path d="M162 871.3L221 915.7L195 841.3Z" fill="#246688" stroke="#246688"></path><path d="M283 873.3L348 897.7L341 836.3Z" fill="#0c2435" stroke="#0c2435"></path><path d="M283 916.7L348 897.7L283 873.3Z" fill="#277297" stroke="#277297"></path><path d="M496 885.7L435 824L420 829.3Z" fill="#277297" stroke="#277297"></path><path d="M435 824L500 817L481 760.7Z" fill="#112e42" stroke="#112e42"></path><path d="M112 911.7L162 871.3L116 859.3Z" fill="#205a7a" stroke="#205a7a"></path><path d="M508 834.3L500 817L435 824Z" fill="#15384f" stroke="#15384f"></path><path d="M221 915.7L283 916.7L283 873.3Z" fill="#15384f" stroke="#15384f"></path><path d="M259 960L283 916.7L221 915.7Z" fill="#297ea6" stroke="#297ea6"></path><path d="M348 107.7L271 81.7L279 164Z" fill="#00101c" stroke="#00101c"></path><path d="M180 71.3L144 85.7L206 107.7Z" fill="#19435d" stroke="#19435d"></path><path d="M117 106.7L73 90.7L116 139Z" fill="#297ea6" stroke="#297ea6"></path><path d="M40 893.7L112 911.7L116 859.3Z" fill="#297ea6" stroke="#297ea6"></path><path d="M507 230.3L489 165L452 246.7Z" fill="#15384f" stroke="#15384f"></path><path d="M410 102.7L355 89.7L348 107.7Z" fill="#19435d" stroke="#19435d"></path><path d="M540 197.3L489 165L507 230.3Z" fill="#00101c" stroke="#00101c"></path><path d="M500 817L540 793L481 760.7Z" fill="#19435d" stroke="#19435d"></path><path d="M348 107.7L291 53.3L271 81.7Z" fill="#246688" stroke="#246688"></path><path d="M410 102.7L380 157L408 153Z" fill="#277297" stroke="#277297"></path><path d="M224 48.3L180 71.3L206 107.7Z" fill="#00101c" stroke="#00101c"></path><path d="M224 48.3L206 107.7L271 81.7Z" fill="#112e42" stroke="#112e42"></path><path d="M0 883.7L40 893.7L31 867.3Z" fill="#00101c" stroke="#00101c"></path><path d="M31 867.3L40 893.7L116 859.3Z" fill="#112e42" stroke="#112e42"></path><path d="M53 71.3L73 90.7L86 53.3Z" fill="#15384f" stroke="#15384f"></path><path d="M86 53.3L73 90.7L117 106.7Z" fill="#15384f" stroke="#15384f"></path><path d="M540 289.7L540 197.3L507 230.3Z" fill="#205a7a" stroke="#205a7a"></path><path d="M388 907.7L420 829.3L375 859.3Z" fill="#297ea6" stroke="#297ea6"></path><path d="M500 817L508 834.3L540 793Z" fill="#246688" stroke="#246688"></path><path d="M380 960L388 907.7L348 897.7Z" fill="#19435d" stroke="#19435d"></path><path d="M348 897.7L388 907.7L375 859.3Z" fill="#15384f" stroke="#15384f"></path><path d="M477 93.7L410 102.7L408 153Z" fill="#297ea6" stroke="#297ea6"></path><path d="M477 93.7L408 153L489 165Z" fill="#19435d" stroke="#19435d"></path><path d="M410 102.7L353 76.3L355 89.7Z" fill="#15384f" stroke="#15384f"></path><path d="M355 89.7L353 76.3L348 107.7Z" fill="#297ea6" stroke="#297ea6"></path><path d="M0 828.3L0 883.7L31 867.3Z" fill="#1d4e6b" stroke="#1d4e6b"></path><path d="M353 76.3L291 53.3L348 107.7Z" fill="#277297" stroke="#277297"></path><path d="M291 53.3L224 48.3L271 81.7Z" fill="#205a7a" stroke="#205a7a"></path><path d="M86 53.3L117 106.7L144 85.7Z" fill="#246688" stroke="#246688"></path><path d="M155 960L221 960L174 915.7Z" fill="#0c2435" stroke="#0c2435"></path><path d="M174 915.7L221 960L221 915.7Z" fill="#0c2435" stroke="#0c2435"></path><path d="M283 916.7L324 960L348 897.7Z" fill="#297ea6" stroke="#297ea6"></path><path d="M155 960L174 915.7L112 911.7Z" fill="#246688" stroke="#246688"></path><path d="M155 960L112 911.7L88 960Z" fill="#205a7a" stroke="#205a7a"></path><path d="M221 960L259 960L221 915.7Z" fill="#0c2435" stroke="#0c2435"></path><path d="M86 53.3L144 85.7L152 0Z" fill="#246688" stroke="#246688"></path><path d="M73 90.7L0 89.7L45 153Z" fill="#205a7a" stroke="#205a7a"></path><path d="M540 197.3L540 162L489 165Z" fill="#15384f" stroke="#15384f"></path><path d="M392 0L320 38.3L353 76.3Z" fill="#00101c" stroke="#00101c"></path><path d="M88 960L112 911.7L40 893.7Z" fill="#1d4e6b" stroke="#1d4e6b"></path><path d="M53 71.3L0 89.7L73 90.7Z" fill="#00101c" stroke="#00101c"></path><path d="M152 0L144 85.7L180 71.3Z" fill="#1d4e6b" stroke="#1d4e6b"></path><path d="M53 71.3L0 30.3L0 89.7Z" fill="#205a7a" stroke="#205a7a"></path><path d="M380 960L418 927.7L388 907.7Z" fill="#297ea6" stroke="#297ea6"></path><path d="M388 907.7L418 927.7L420 829.3Z" fill="#246688" stroke="#246688"></path><path d="M259 960L324 960L283 916.7Z" fill="#297ea6" stroke="#297ea6"></path><path d="M418 927.7L496 885.7L420 829.3Z" fill="#297ea6" stroke="#297ea6"></path><path d="M508 834.3L540 861.3L540 793Z" fill="#112e42" stroke="#112e42"></path><path d="M353 76.3L320 38.3L291 53.3Z" fill="#00101c" stroke="#00101c"></path><path d="M265 0L206 0L224 48.3Z" fill="#081a28" stroke="#081a28"></path><path d="M224 48.3L206 0L180 71.3Z" fill="#205a7a" stroke="#205a7a"></path><path d="M424 37.3L353 76.3L410 102.7Z" fill="#00101c" stroke="#00101c"></path><path d="M38 960L88 960L40 893.7Z" fill="#00101c" stroke="#00101c"></path><path d="M540 98.7L477 93.7L489 165Z" fill="#00101c" stroke="#00101c"></path><path d="M496 885.7L540 861.3L508 834.3Z" fill="#277297" stroke="#277297"></path><path d="M324 960L380 960L348 897.7Z" fill="#205a7a" stroke="#205a7a"></path><path d="M418 927.7L470 960L496 885.7Z" fill="#19435d" stroke="#19435d"></path><path d="M496 885.7L540 921.7L540 861.3Z" fill="#00101c" stroke="#00101c"></path><path d="M0 960L38 960L40 893.7Z" fill="#081a28" stroke="#081a28"></path><path d="M380 960L411 960L418 927.7Z" fill="#297ea6" stroke="#297ea6"></path><path d="M265 0L224 48.3L291 53.3Z" fill="#15384f" stroke="#15384f"></path><path d="M76 0L0 30.3L53 71.3Z" fill="#081a28" stroke="#081a28"></path><path d="M308 0L291 53.3L320 38.3Z" fill="#081a28" stroke="#081a28"></path><path d="M308 0L265 0L291 53.3Z" fill="#0c2435" stroke="#0c2435"></path><path d="M476 55.3L424 37.3L410 102.7Z" fill="#081a28" stroke="#081a28"></path><path d="M206 0L152 0L180 71.3Z" fill="#205a7a" stroke="#205a7a"></path><path d="M392 0L308 0L320 38.3Z" fill="#0c2435" stroke="#0c2435"></path><path d="M0 883.7L0 960L40 893.7Z" fill="#277297" stroke="#277297"></path><path d="M540 162L540 98.7L489 165Z" fill="#297ea6" stroke="#297ea6"></path><path d="M477 93.7L476 55.3L410 102.7Z" fill="#0c2435" stroke="#0c2435"></path><path d="M540 57.3L476 55.3L477 93.7Z" fill="#246688" stroke="#246688"></path><path d="M152 0L104 0L86 53.3Z" fill="#297ea6" stroke="#297ea6"></path><path d="M76 0L53 71.3L86 53.3Z" fill="#19435d" stroke="#19435d"></path><path d="M411 960L470 960L418 927.7Z" fill="#081a28" stroke="#081a28"></path><path d="M104 0L76 0L86 53.3Z" fill="#205a7a" stroke="#205a7a"></path><path d="M470 960L540 921.7L496 885.7Z" fill="#297ea6" stroke="#297ea6"></path><path d="M429 0L392 0L424 37.3Z" fill="#19435d" stroke="#19435d"></path><path d="M424 37.3L392 0L353 76.3Z" fill="#1d4e6b" stroke="#1d4e6b"></path><path d="M478 0L429 0L424 37.3Z" fill="#297ea6" stroke="#297ea6"></path><path d="M478 0L424 37.3L476 55.3Z" fill="#205a7a" stroke="#205a7a"></path><path d="M540 98.7L540 57.3L477 93.7Z" fill="#00101c" stroke="#00101c"></path><path d="M76 0L0 0L0 30.3Z" fill="#19435d" stroke="#19435d"></path><path d="M470 960L540 960L540 921.7Z" fill="#277297" stroke="#277297"></path><path d="M540 57.3L478 0L476 55.3Z" fill="#277297" stroke="#277297"></path><path d="M540 57.3L540 0L478 0Z" fill="#205a7a" stroke="#205a7a"></path></g></svg>